<?xml version="1.0" encoding="utf-8"?>
<!-- Generator: Adobe Illustrator 27.7.0, SVG Export Plug-In . SVG Version: 6.00 Build 0)  -->
<svg version="1.1" id="Layer_1" xmlns="http://www.w3.org/2000/svg" xmlns:xlink="http://www.w3.org/1999/xlink" x="0px" y="0px"
	 viewBox="0 0 2000 500" style="enable-background:new 0 0 2000 500;" xml:space="preserve">
<style type="text/css">
	.st0{fill:#006633;}
</style>
<g>
	<g>
		<path class="st0" d="M76.5,153.9v-16.1c4.7,0,8.3-1.1,10.9-3.4c2.6-2.3,3.9-5.5,3.9-9.7V92.1c0-10.1,2.9-17.9,8.7-23.4
			c5.8-5.5,14-8.3,24.5-8.3v17.5c-4.7,0-8.3,1.2-10.9,3.6c-2.5,2.4-3.8,5.8-3.8,10.1v34.5c0,9.5-2.9,16.4-8.6,21
			C95.5,151.6,87.3,153.9,76.5,153.9z M124.5,233.2c-10.6,0-18.7-2.8-24.5-8.3c-5.8-5.5-8.7-13.3-8.7-23.3V169
			c0-4.2-1.3-7.4-3.9-9.7c-2.6-2.3-6.2-3.4-10.9-3.4v-16.1c10.7,0,19,2.3,24.7,7c5.7,4.7,8.6,11.9,8.6,21.7v33.5
			c0,4.4,1.3,7.8,3.8,10.2c2.5,2.4,6.2,3.6,10.9,3.6V233.2z"/>
		<path d="M204.9,79.9v95.4c0,2,0.5,3.7,1.6,4.8c1.1,1.2,2.5,1.7,4.5,1.7h5.9v19h-10.8c-6.6,0-11.8-2-15.5-6
			c-3.7-4-5.5-9.6-5.5-16.9V79.9H204.9z"/>
		<path d="M259,201.8c-9.9,0-17.3-2.2-22.2-6.6c-5-4.4-7.4-11.1-7.4-20.1c0-8.6,2.5-15,7.5-19.2s12.5-6.4,22.4-6.4h23.1l1.2,15.4
			h-24.2c-3.9,0-6.9,0.8-8.8,2.5c-2,1.7-2.9,4.2-2.9,7.6c0,3.6,1.3,6.3,3.8,8c2.5,1.7,6.4,2.6,11.5,2.6c6.3,0,10.9-0.7,14-2.1
			c3.1-1.4,4.6-3.5,4.6-6.5l1.7,12.3c-0.9,2.8-2.6,5.1-5,6.9c-2.4,1.8-5.3,3.1-8.6,4S262.8,201.8,259,201.8z M281.6,200.6V146
			c0-4.8-1.4-8.5-4.3-11.2c-2.9-2.7-6.9-4-12.1-4c-3.3,0-6.6,0.5-9.8,1.5c-3.2,1-6.1,2.5-8.6,4.4l-13.2-11.1c3.4-3.9,7.8-7,13.3-9.2
			c5.5-2.2,11.6-3.3,18.3-3.3c11.1,0,19.6,2.8,25.7,8.4c6.1,5.6,9.1,13.5,9.1,23.7v55.4H281.6z"/>
		<path d="M343.8,114.4v52.4c0,5.1,1.4,9,4.1,11.8c2.7,2.8,6.5,4.2,11.5,4.2c4.9,0,8.7-1.3,11.4-4s4-6.4,4-11.3l1.2,18.4
			c-1.5,4.1-4.1,7.8-7.8,11s-8.6,4.9-14.7,4.9c-9.4,0-16.6-3-21.7-9.1c-5.1-6.1-7.7-14.6-7.7-25.5v-52.8H343.8z M374.7,200.6v-86.2
			h19.8v86.2H374.7z"/>
		<path d="M418.5,200.6v-86.2h20.7v86.2H418.5z M466.5,136.6c-1.3-1.4-2.9-2.5-4.9-3.3c-2-0.7-4.2-1.1-6.8-1.1
			c-5,0-8.8,1.5-11.6,4.4c-2.7,3-4.1,7.1-4.1,12.3l-1.7-19.5c2.5-5.1,5.7-9.1,9.8-12c4-2.9,8.4-4.3,13.2-4.3c3.8,0,7.2,0.6,10.2,1.7
			c3,1.1,5.7,2.8,8,5L466.5,136.6z"/>
		<path d="M525.5,201.8c-12.2,0-21.7-3.3-28.5-10c-6.8-6.7-10.1-16.2-10.1-28.6v-9.7c0-12.8,3.2-22.8,9.7-29.8
			c6.5-7,15.6-10.5,27.4-10.5c11.1,0,19.7,4.1,25.8,12.2c6.1,8.2,9.1,19.7,9.1,34.5v5.6h-58.5V151h40.1l-0.1-0.9
			c-0.6-6-2.2-10.6-5.1-14c-2.8-3.3-6.6-5-11.4-5c-5.9,0-10.5,1.9-13.8,5.6c-3.3,3.7-4.9,9-4.9,15.9v11c0,6.5,1.8,11.6,5.3,15.1
			c3.5,3.5,8.5,5.3,14.9,5.3c3.3,0,6.5-0.6,9.7-1.9c3.2-1.2,6-3,8.6-5.2l12.9,12.1c-4.4,4.1-9.3,7.3-14.7,9.5
			C536.5,200.7,531.1,201.8,525.5,201.8z"/>
		<path d="M580.6,200.6v-86.2h19.8v86.2H580.6z M631.6,200.6v-52.2c0-5.2-1.4-9.2-4.2-12c-2.8-2.8-6.7-4.2-11.8-4.2
			c-4.9,0-8.6,1.3-11.3,4s-4,6.4-4,11.1l-1.7-17.8c2.5-5.2,5.8-9.2,9.7-12c3.9-2.8,8.6-4.2,14.1-4.2c9.2,0,16.4,3.1,21.4,9.2
			c5,6.1,7.6,14.8,7.6,25.9v52.3H631.6z"/>
		<path d="M711.1,201.8c-12.1,0-21.4-3.4-28.1-10.1c-6.7-6.8-10-16.3-10-28.6v-11.7c0-12.2,3.3-21.6,10-28.3c6.6-6.7,16-10,28.1-10
			c6.9,0,13.2,1.2,18.7,3.6c5.6,2.4,10,5.8,13.3,10.2l-13.4,12.6c-2.2-2.4-4.8-4.2-7.9-5.5c-3-1.3-6.3-1.9-9.6-1.9
			c-6.1,0-10.9,1.7-14.3,5.1c-3.4,3.4-5.1,8.1-5.1,14.2v11.7c0,6.3,1.7,11.1,5.1,14.5c3.4,3.4,8.1,5.1,14.3,5.1
			c3.4,0,6.6-0.7,9.6-2.1c3-1.4,5.7-3.3,7.9-5.9l13.4,13.4c-3.3,4.3-7.8,7.7-13.4,10C724.2,200.7,718,201.8,711.1,201.8z"/>
		<path d="M796.3,201.8c-12.2,0-21.7-3.3-28.5-10c-6.8-6.7-10.1-16.2-10.1-28.6v-9.7c0-12.8,3.2-22.8,9.7-29.8
			c6.5-7,15.6-10.5,27.4-10.5c11.1,0,19.7,4.1,25.8,12.2c6.1,8.2,9.1,19.7,9.1,34.5v5.6h-58.5V151h40.1l-0.1-0.9
			c-0.6-6-2.2-10.6-5.1-14c-2.8-3.3-6.6-5-11.4-5c-5.9,0-10.5,1.9-13.8,5.6c-3.3,3.7-4.9,9-4.9,15.9v11c0,6.5,1.8,11.6,5.3,15.1
			c3.5,3.5,8.5,5.3,14.9,5.3c3.3,0,6.5-0.6,9.7-1.9c3.2-1.2,6-3,8.6-5.2l12.9,12.1c-4.4,4.1-9.3,7.3-14.7,9.5
			C807.3,200.7,801.8,201.8,796.3,201.8z"/>
		<path d="M890.1,201.8c-5.8,0-11.4-0.6-16.7-1.7c-5.3-1.1-10.3-2.8-15-5c-4.6-2.2-8.9-5-12.9-8.2l10.5-15.9
			c4.6,3.9,9.9,6.9,15.6,8.9c5.8,2,11.9,3,18.4,3c8.1,0,14.3-1.4,18.8-4.3c4.5-2.9,6.7-6.9,6.7-12.2v-0.1c0-4-1.1-7.1-3.4-9.3
			s-5.2-3.7-8.8-4.8c-3.7-1-7.6-1.9-12-2.6c-4.6-0.7-9.3-1.6-14-2.7s-9.1-2.8-13-5.1c-4-2.3-7.1-5.6-9.5-9.9
			c-2.4-4.3-3.6-10-3.6-17.1v-0.1c0-11.5,3.8-20.4,11.4-26.7c7.6-6.3,18.4-9.5,32.2-9.5c6.5,0,12.9,1.1,19.4,3.2
			c6.5,2.1,12.6,5.3,18.5,9.4l-9.6,16.4c-4.6-3.4-9.4-5.9-14.2-7.6c-4.8-1.7-9.5-2.5-14.1-2.5c-7.6,0-13.5,1.4-17.7,4.2
			c-4.2,2.8-6.3,6.7-6.3,11.8v0.1c0,4.2,1.2,7.4,3.7,9.6c2.5,2.2,5.7,3.8,9.6,4.9c4,1.1,8.2,2,12.8,3c4.5,0.9,9.1,2,13.6,3.2
			c4.5,1.3,8.6,3.1,12.3,5.5c3.7,2.4,6.7,5.7,8.9,9.8c2.2,4.2,3.4,9.6,3.4,16.3v0.2c0,11.4-3.9,20.2-11.8,26.4
			S904.4,201.8,890.1,201.8z"/>
		<path d="M975.8,114.4v52.4c0,5.1,1.4,9,4.1,11.8c2.7,2.8,6.5,4.2,11.5,4.2s8.7-1.3,11.4-4s4-6.4,4-11.3l1.2,18.4
			c-1.5,4.1-4.1,7.8-7.8,11c-3.7,3.2-8.6,4.9-14.7,4.9c-9.4,0-16.6-3-21.7-9.1c-5.1-6.1-7.7-14.6-7.7-25.5v-52.8H975.8z
			 M1006.7,200.6v-86.2h19.8v86.2H1006.7z"/>
		<path d="M1050.5,200.6v-86.2h19.8v86.2H1050.5z M1101.4,200.6v-51c0-5.5-1.4-9.8-4.1-12.9c-2.7-3-6.6-4.6-11.7-4.6
			c-4.9,0-8.6,1.3-11.3,4s-4,6.4-4,11.1l-1.7-17.8c2.5-5.2,5.8-9.2,9.9-12c4-2.8,8.7-4.2,13.9-4.2c9.1,0,16.2,3.2,21.2,9.5
			c5,6.3,7.5,15.3,7.5,26.9v51H1101.4z M1152.2,200.6v-51c0-5.5-1.4-9.8-4.2-12.9c-2.8-3-6.7-4.6-11.8-4.6c-4.8,0-8.5,1.5-11.2,4.4
			c-2.6,2.9-3.9,7.1-3.9,12.4l-3.8-18.3c2.8-5.6,6.4-10,10.7-13c4.4-3,9.3-4.5,14.6-4.5c9.4,0,16.6,3.2,21.7,9.5
			c5.1,6.3,7.7,15.3,7.7,26.9v51H1152.2z"/>
		<path d="M1196.1,200.6v-86.2h19.8v86.2H1196.1z M1247,200.6v-51c0-5.5-1.4-9.8-4.1-12.9c-2.7-3-6.6-4.6-11.7-4.6
			c-4.9,0-8.6,1.3-11.3,4s-4,6.4-4,11.1l-1.7-17.8c2.5-5.2,5.8-9.2,9.9-12c4-2.8,8.7-4.2,13.9-4.2c9.1,0,16.2,3.2,21.2,9.5
			c5,6.3,7.5,15.3,7.5,26.9v51H1247z M1297.8,200.6v-51c0-5.5-1.4-9.8-4.2-12.9c-2.8-3-6.7-4.6-11.8-4.6c-4.8,0-8.5,1.5-11.2,4.4
			c-2.6,2.9-3.9,7.1-3.9,12.4l-3.8-18.3c2.8-5.6,6.4-10,10.7-13c4.4-3,9.3-4.5,14.6-4.5c9.4,0,16.6,3.2,21.7,9.5
			c5.1,6.3,7.7,15.3,7.7,26.9v51H1297.8z"/>
		<path d="M1377.8,201.8c-12.2,0-21.7-3.3-28.5-10c-6.8-6.7-10.1-16.2-10.1-28.6v-9.7c0-12.8,3.2-22.8,9.7-29.8
			c6.5-7,15.6-10.5,27.4-10.5c11.1,0,19.7,4.1,25.8,12.2c6.1,8.2,9.1,19.7,9.1,34.5v5.6h-58.5V151h40.1l-0.1-0.9
			c-0.6-6-2.2-10.6-5.1-14c-2.8-3.3-6.6-5-11.4-5c-5.9,0-10.5,1.9-13.8,5.6c-3.3,3.7-4.9,9-4.9,15.9v11c0,6.5,1.8,11.6,5.3,15.1
			c3.5,3.5,8.5,5.3,14.9,5.3c3.3,0,6.5-0.6,9.7-1.9c3.2-1.2,6-3,8.6-5.2l12.9,12.1c-4.4,4.1-9.3,7.3-14.7,9.5
			C1388.9,200.7,1383.4,201.8,1377.8,201.8z"/>
		<path d="M1432.9,200.6v-86.2h20.7v86.2H1432.9z M1480.9,136.6c-1.3-1.4-2.9-2.5-4.9-3.3c-2-0.7-4.2-1.1-6.8-1.1
			c-5,0-8.8,1.5-11.6,4.4c-2.7,3-4.1,7.1-4.1,12.3l-1.7-19.5c2.5-5.1,5.7-9.1,9.8-12c4-2.9,8.4-4.3,13.2-4.3c3.8,0,7.2,0.6,10.2,1.7
			c3,1.1,5.7,2.8,8,5L1480.9,136.6z"/>
		<path d="M1537.1,201.8c-7.7,0-14.8-1.1-21.5-3.2c-6.6-2.2-12.4-5.3-17.3-9.4l12-14.9c4.4,3.1,8.9,5.5,13.4,7.1
			c4.5,1.6,9,2.4,13.3,2.4c6,0,10.6-0.8,13.7-2.4c3.1-1.6,4.7-4,4.7-7.1c0-2.9-1.1-5-3.2-6.1c-2.1-1.1-4.9-1.9-8.3-2.2
			c-3.4-0.4-7.1-0.7-11-1.1c-3.6-0.4-7.2-0.9-10.7-1.5c-3.5-0.6-6.7-1.7-9.6-3.3c-2.9-1.5-5.2-3.9-7-6.9c-1.7-3.1-2.6-7.2-2.6-12.5
			c0-8.9,2.9-15.7,8.8-20.3c5.9-4.6,14.4-7,25.5-7c6.7,0,13.1,0.9,19.2,2.8c6.1,1.9,11.7,4.6,16.8,8.3l-11.9,14.4
			c-4-2.4-8.1-4.3-12.2-5.6c-4.1-1.3-8.1-1.9-12-1.9c-5.2,0-9.2,0.7-11.9,2.2c-2.7,1.5-4.1,3.7-4.1,6.6c0,2.2,0.9,3.7,2.8,4.7
			c1.9,1,4.4,1.6,7.4,2c3.1,0.4,6.4,0.7,9.9,1c3.7,0.3,7.4,0.8,11.2,1.4c3.8,0.6,7.2,1.7,10.4,3.4c3.2,1.7,5.7,4.2,7.7,7.5
			c1.9,3.3,2.9,7.9,2.9,13.6c0,9.1-3.1,16.1-9.3,20.9C1558.1,199.4,1549,201.8,1537.1,201.8z"/>
		<path class="st0" d="M1590.3,134.7v-20.3h20.3v20.3H1590.3z M1590.3,200.6v-20.3h20.3v20.3H1590.3z"/>
	</g>
	<g>
		<path d="M550.1,404.6l-26.6-86.2h19.8l15.3,57.4l19.8-57.4H591l19.8,57.4l15.3-57.4h19.8l-26.6,86.2h-14.9l-19.8-57.9L565,404.6
			H550.1z"/>
		<path d="M696.9,405.8c-12.2,0-21.7-3.3-28.5-10c-6.8-6.7-10.1-16.2-10.1-28.6v-9.7c0-12.8,3.2-22.8,9.7-29.8
			c6.5-7,15.6-10.5,27.4-10.5c11.1,0,19.7,4.1,25.8,12.2c6.1,8.2,9.1,19.7,9.1,34.5v5.6h-58.5V355H712l-0.1-0.9
			c-0.6-6-2.2-10.6-5.1-14c-2.8-3.3-6.6-5-11.4-5c-5.9,0-10.5,1.9-13.8,5.6c-3.3,3.7-4.9,9-4.9,15.9v11c0,6.5,1.8,11.6,5.3,15.1
			c3.5,3.5,8.5,5.3,14.9,5.3c3.3,0,6.5-0.6,9.7-1.9c3.2-1.2,6-3,8.6-5.2l12.9,12.1c-4.4,4.1-9.3,7.3-14.7,9.5
			C708,404.7,702.5,405.8,696.9,405.8z"/>
		<path d="M752,404.6V283.9h19.8v120.7H752z M792.6,405.8c-5.2,0-9.7-1.3-13.5-3.9c-3.8-2.6-6.6-6.2-8.5-10.9l1.2-18.8
			c0,3.3,0.6,6,1.7,8.3c1.2,2.3,2.8,4.1,5.1,5.3c2.2,1.2,4.9,1.8,8.1,1.8c4.9,0,8.7-1.6,11.5-4.7c2.7-3.1,4.1-7.5,4.1-13.2v-16.2
			c0-5.8-1.4-10.3-4.1-13.5c-2.7-3.2-6.5-4.8-11.5-4.8c-3.2,0-5.8,0.6-8.1,1.8c-2.2,1.2-3.9,2.9-5.1,5.2c-1.2,2.3-1.7,5.1-1.7,8.4
			l-1.7-17.8c2.5-5,5.7-8.9,9.7-11.7c4-2.7,8.4-4.1,13.3-4.1c9.2,0,16.4,3.2,21.4,9.5c5,6.3,7.6,15.3,7.6,26.9v16.3
			c0,11.5-2.6,20.3-7.7,26.6C809.2,402.7,802,405.8,792.6,405.8z"/>
		<path d="M846.1,404.6V283.9h19.8v120.7H846.1z M857.6,404.6v-19h28.1c8.2,0,14.5-2.1,19.1-6.2c4.5-4.1,6.8-9.9,6.8-17.4v-35.5
			c0-7.5-2.3-13.3-6.8-17.4c-4.5-4.1-10.9-6.1-19.1-6.1h-28.1v-19h27.6c14.9,0,26.4,3.8,34.5,11.3c8.1,7.6,12.2,18.2,12.2,31.9v34.2
			c0,8.9-1.8,16.5-5.4,23s-8.8,11.5-15.8,15c-7,3.5-15.5,5.3-25.6,5.3H857.6z"/>
		<path d="M992.1,405.8c-12.2,0-21.7-3.3-28.5-10c-6.8-6.7-10.1-16.2-10.1-28.6v-9.7c0-12.8,3.2-22.8,9.7-29.8
			c6.5-7,15.6-10.5,27.4-10.5c11.1,0,19.7,4.1,25.8,12.2c6.1,8.2,9.1,19.7,9.1,34.5v5.6H967V355h40.1l-0.1-0.9
			c-0.6-6-2.2-10.6-5.1-14c-2.8-3.3-6.6-5-11.4-5c-5.9,0-10.5,1.9-13.8,5.6c-3.3,3.7-4.9,9-4.9,15.9v11c0,6.5,1.8,11.6,5.3,15.1
			c3.5,3.5,8.5,5.3,14.9,5.3c3.3,0,6.5-0.6,9.7-1.9c3.2-1.2,6-3,8.6-5.2l12.9,12.1c-4.4,4.1-9.3,7.3-14.7,9.5
			C1003.1,404.7,997.7,405.8,992.1,405.8z"/>
		<path d="M1074.3,376.2l19.4-57.8h20.2l-32.4,86.2h-14.4l-32.4-86.2h20.2L1074.3,376.2z"/>
		<path d="M1163.3,405.8c-12.2,0-21.7-3.3-28.5-10c-6.8-6.7-10.1-16.2-10.1-28.6v-9.7c0-12.8,3.2-22.8,9.7-29.8
			c6.5-7,15.6-10.5,27.4-10.5c11.1,0,19.7,4.1,25.8,12.2c6.1,8.2,9.1,19.7,9.1,34.5v5.6h-58.5V355h40.1l-0.1-0.9
			c-0.6-6-2.2-10.6-5.1-14c-2.8-3.3-6.6-5-11.4-5c-5.9,0-10.5,1.9-13.8,5.6c-3.3,3.7-4.9,9-4.9,15.9v11c0,6.5,1.8,11.6,5.3,15.1
			c3.5,3.5,8.5,5.3,14.9,5.3c3.3,0,6.5-0.6,9.7-1.9c3.2-1.2,6-3,8.6-5.2l12.9,12.1c-4.4,4.1-9.3,7.3-14.7,9.5
			C1174.3,404.7,1168.8,405.8,1163.3,405.8z"/>
		<path d="M1238.2,283.9v95.4c0,2,0.5,3.7,1.6,4.8c1.1,1.2,2.5,1.7,4.5,1.7h5.9v19h-10.8c-6.6,0-11.8-2-15.5-6
			c-3.7-4-5.5-9.6-5.5-16.9v-98.1H1238.2z"/>
		<path d="M1301.4,405.8c-11.6,0-20.5-3.3-26.9-9.8c-6.3-6.6-9.5-15.8-9.5-27.7v-14c0-11.8,3.2-20.9,9.5-27.4
			c6.3-6.5,15.3-9.7,26.9-9.7c11.6,0,20.5,3.2,26.9,9.7c6.3,6.5,9.5,15.6,9.5,27.4v14.3c0,11.8-3.2,21-9.5,27.5
			C1321.9,402.6,1313,405.8,1301.4,405.8z M1301.4,386.8c5.3,0,9.3-1.6,12.2-4.8c2.9-3.2,4.3-7.7,4.3-13.4v-14.3
			c0-5.8-1.4-10.2-4.3-13.4c-2.9-3.2-6.9-4.7-12.2-4.7c-5.2,0-9.3,1.6-12.2,4.7c-2.9,3.2-4.4,7.6-4.4,13.4v14.3
			c0,5.8,1.5,10.2,4.4,13.4C1292.1,385.2,1296.2,386.8,1301.4,386.8z"/>
		<path d="M1360.2,439.6V318.4h19.8v121.2H1360.2z M1400.8,405.8c-5.2,0-9.7-1.3-13.5-3.9c-3.8-2.6-6.6-6.2-8.5-10.9l1.2-18.8
			c0,3.3,0.6,6,1.7,8.3c1.2,2.3,2.8,4.1,5.1,5.3c2.2,1.2,4.9,1.8,8.1,1.8c4.9,0,8.7-1.6,11.5-4.7c2.7-3.1,4.1-7.5,4.1-13.2v-16.2
			c0-5.8-1.4-10.3-4.1-13.5c-2.7-3.2-6.5-4.8-11.5-4.8c-3.2,0-5.8,0.6-8.1,1.8c-2.2,1.2-3.9,2.9-5.1,5.2c-1.2,2.3-1.7,5.1-1.7,8.4
			l-1.7-17.8c2.5-5,5.7-8.9,9.7-11.7c4-2.7,8.4-4.1,13.3-4.1c9.2,0,16.4,3.2,21.4,9.5c5,6.3,7.6,15.3,7.6,26.9v16.3
			c0,11.5-2.6,20.3-7.7,26.6C1417.4,402.7,1410.2,405.8,1400.8,405.8z"/>
		<path d="M1452.6,404.6v-86.2h19.8v86.2H1452.6z M1503.5,404.6v-51c0-5.5-1.4-9.8-4.1-12.9c-2.7-3-6.6-4.6-11.7-4.6
			c-4.9,0-8.6,1.3-11.3,4s-4,6.4-4,11.1l-1.7-17.8c2.5-5.2,5.8-9.2,9.9-12c4-2.8,8.7-4.2,13.9-4.2c9.1,0,16.2,3.2,21.2,9.5
			c5,6.3,7.5,15.3,7.5,26.9v51H1503.5z M1554.3,404.6v-51c0-5.5-1.4-9.8-4.2-12.9c-2.8-3-6.7-4.6-11.8-4.6c-4.8,0-8.5,1.5-11.2,4.4
			c-2.6,2.9-3.9,7.1-3.9,12.4l-3.8-18.3c2.8-5.6,6.4-10,10.7-13c4.4-3,9.3-4.5,14.6-4.5c9.4,0,16.6,3.2,21.7,9.5
			c5.1,6.3,7.7,15.3,7.7,26.9v51H1554.3z"/>
		<path d="M1634.3,405.8c-12.2,0-21.7-3.3-28.5-10c-6.8-6.7-10.1-16.2-10.1-28.6v-9.7c0-12.8,3.2-22.8,9.7-29.8
			c6.5-7,15.6-10.5,27.4-10.5c11.1,0,19.7,4.1,25.8,12.2c6.1,8.2,9.1,19.7,9.1,34.5v5.6h-58.5V355h40.1l-0.1-0.9
			c-0.6-6-2.2-10.6-5.1-14c-2.8-3.3-6.6-5-11.4-5c-5.9,0-10.5,1.9-13.8,5.6c-3.3,3.7-4.9,9-4.9,15.9v11c0,6.5,1.8,11.6,5.3,15.1
			c3.5,3.5,8.5,5.3,14.9,5.3c3.3,0,6.5-0.6,9.7-1.9c3.2-1.2,6-3,8.6-5.2l12.9,12.1c-4.4,4.1-9.3,7.3-14.7,9.5
			C1645.4,404.7,1639.9,405.8,1634.3,405.8z"/>
		<path d="M1689.4,404.6v-86.2h19.8v86.2H1689.4z M1740.4,404.6v-52.2c0-5.2-1.4-9.2-4.2-12c-2.8-2.8-6.7-4.2-11.8-4.2
			c-4.9,0-8.6,1.3-11.3,4s-4,6.4-4,11.1l-1.7-17.8c2.5-5.2,5.8-9.2,9.7-12c3.9-2.8,8.6-4.2,14.1-4.2c9.2,0,16.4,3.1,21.4,9.2
			c5,6.1,7.6,14.8,7.6,25.9v52.3H1740.4z"/>
		<path d="M1777.7,335.8v-17.3h40.5v17.3H1777.7z M1807.6,405c-7.4,0-12.7-2-16-5.9c-3.3-3.9-5-9.6-5-16.9v-88.8h19.8v86.1
			c0,2,0.4,3.7,1.2,4.8s2,1.7,3.7,1.7h6.9v19H1807.6z"/>
		<path class="st0" d="M1923.5,358.3c-10.7,0-18.9-2.3-24.7-6.9c-5.8-4.6-8.6-11.7-8.6-21.2v-34.5c0-4.4-1.3-7.7-3.8-10.1
			c-2.5-2.4-6.2-3.6-10.9-3.6v-17.5c10.6,0,18.7,2.8,24.5,8.3c5.8,5.5,8.7,13.3,8.7,23.4v32.1c0,4.2,1.3,7.4,3.9,9.7
			c2.6,2.3,6.2,3.4,10.9,3.4V358.3z M1875.5,437.2v-17.5c4.7,0,8.3-1.2,10.9-3.6c2.5-2.4,3.8-5.8,3.8-10.2v-33.5
			c0-9.9,2.9-17.2,8.6-22c5.8-4.8,14-7.1,24.7-7.1v16.9c-4.7,0-8.3,1.1-10.9,3.4c-2.6,2.3-3.9,5.5-3.9,9.7v32.2
			c0,10-2.9,17.8-8.7,23.3C1894.2,434.4,1886.1,437.2,1875.5,437.2z"/>
	</g>
</g>
</svg>
