<?xml version="1.0" encoding="utf-8"?>
<!-- Generator: Adobe Illustrator 27.7.0, SVG Export Plug-In . SVG Version: 6.00 Build 0)  -->
<svg version="1.1" id="Layer_1" xmlns="http://www.w3.org/2000/svg" xmlns:xlink="http://www.w3.org/1999/xlink" x="0px" y="0px"
	 viewBox="0 0 100 100" style="enable-background:new 0 0 100 100;" xml:space="preserve">
<style type="text/css">
	.st0{clip-path:url(#SVGID_00000089543559413392367590000015507897097180513958_);}
	.st1{fill:none;stroke:#000000;stroke-miterlimit:10;}
</style>
<g>
	<defs>
		<rect id="SVGID_1_" width="100" height="100"/>
	</defs>
	<clipPath id="SVGID_00000091730477754665587350000000003591925043114379_">
		<use xlink:href="#SVGID_1_"  style="overflow:visible;"/>
	</clipPath>
	<g style="clip-path:url(#SVGID_00000091730477754665587350000000003591925043114379_);">
		<polygon class="st1" points="87.5,100 112.5,100 100,75 		"/>
		<polygon class="st1" points="62.5,100 87.5,100 75,75 		"/>
		<polygon class="st1" points="37.5,100 62.5,100 50,75 		"/>
		<polygon class="st1" points="12.5,100 37.5,100 25,75 		"/>
		<polygon class="st1" points="-12.5,100 12.5,100 0,75 		"/>
		<polygon class="st1" points="100,75 87.5,50 75,75 		"/>
		<polygon class="st1" points="50,75 75,75 62.5,50 		"/>
		<polygon class="st1" points="25,75 50,75 37.5,50 		"/>
		<polygon class="st1" points="12.5,50 0,75 25,75 		"/>
		<polygon class="st1" points="112.5,50 100,25 87.5,50 		"/>
		<polygon class="st1" points="87.5,50 75,25 62.5,50 		"/>
		<polygon class="st1" points="62.5,50 50,25 37.5,50 		"/>
		<polygon class="st1" points="25,25 12.5,50 37.5,50 		"/>
		<polygon class="st1" points="-12.5,50 12.5,50 0,25 		"/>
		<polygon class="st1" points="87.5,0 75,25 100,25 		"/>
		<polygon class="st1" points="62.5,0 50,25 75,25 		"/>
		<polygon class="st1" points="37.5,0 25,25 50,25 		"/>
		<polygon class="st1" points="12.5,0 0,25 25,25 		"/>
	</g>
</g>
</svg>
