<?xml version="1.0" encoding="utf-8"?>
<!-- Generator: Adobe Illustrator 27.8.1, SVG Export Plug-In . SVG Version: 6.00 Build 0)  -->
<svg version="1.1" id="Layer_1" xmlns="http://www.w3.org/2000/svg" xmlns:xlink="http://www.w3.org/1999/xlink" x="0px" y="0px"
	 viewBox="0 0 75 393.2" style="enable-background:new 0 0 75 393.2;" xml:space="preserve">
<style type="text/css">
	.st0{clip-path:url(#SVGID_00000105401444935465482280000009860186072744852874_);}
</style>
<g>
	<defs>
		<rect id="SVGID_1_" x="0" width="75" height="393.2"/>
	</defs>
	<clipPath id="SVGID_00000160890386726773024640000012100088011682303671_">
		<use xlink:href="#SVGID_1_"  style="overflow:visible;"/>
	</clipPath>
	<g style="clip-path:url(#SVGID_00000160890386726773024640000012100088011682303671_);">
		<g>
			<polygon points="76.2,371.6 73.8,371.6 72.5,369.4 73.8,367.3 76.2,367.3 77.5,369.4 			"/>
			<polygon points="77.5,330.5 72.5,330.5 70,326.1 72.5,321.8 77.5,321.8 80,326.1 			"/>
			<polygon points="78.8,289.3 71.2,289.3 67.5,282.8 71.2,276.3 78.8,276.3 82.5,282.8 			"/>
			<polygon points="80,248.2 70,248.2 65,239.5 70,230.9 80,230.9 85,239.5 			"/>
			<polygon points="81.2,207 68.8,207 62.5,196.2 68.8,185.4 81.2,185.4 87.5,196.2 			"/>
			<polygon points="82.5,164.5 67.5,164.5 60,151.6 67.5,138.6 82.5,138.6 90,151.6 			"/>
			<polygon points="83.8,123.4 66.2,123.4 57.5,108.3 66.2,93.1 83.8,93.1 92.5,108.3 			"/>
			<polygon points="85,82.3 65,82.3 55,65 65,47.6 85,47.6 95,65 			"/>
			<polygon points="86.2,41.1 63.8,41.1 52.5,21.7 63.8,2.2 86.2,2.2 97.5,21.7 			"/>
		</g>
		<g>
			<polygon points="1.2,371.6 -1.2,371.6 -2.5,369.4 -1.2,367.3 1.2,367.3 2.5,369.4 			"/>
			<polygon points="2.5,330.5 -2.5,330.5 -5,326.1 -2.5,321.8 2.5,321.8 5,326.1 			"/>
			<polygon points="3.8,289.3 -3.8,289.3 -7.5,282.8 -3.8,276.3 3.8,276.3 7.5,282.8 			"/>
			<polygon points="5,248.2 -5,248.2 -10,239.5 -5,230.9 5,230.9 10,239.5 			"/>
			<polygon points="6.2,207 -6.2,207 -12.5,196.2 -6.2,185.4 6.2,185.4 12.5,196.2 			"/>
			<polygon points="7.5,164.5 -7.5,164.5 -15,151.6 -7.5,138.6 7.5,138.6 15,151.6 			"/>
			<polygon points="8.8,123.4 -8.8,123.4 -17.5,108.3 -8.8,93.1 8.8,93.1 17.5,108.3 			"/>
			<polygon points="10,82.3 -10,82.3 -20,65 -10,47.6 10,47.6 20,65 			"/>
			<polygon points="11.2,41.1 -11.2,41.1 -22.5,21.7 -11.2,2.2 11.2,2.2 22.5,21.7 			"/>
		</g>
		<g>
			<polygon points="38.8,393.2 36.2,393.2 35,391.1 36.2,388.9 38.8,388.9 40,391.1 			"/>
			<polygon points="40,352.1 35,352.1 32.5,347.8 35,343.4 40,343.4 42.5,347.8 			"/>
			<polygon points="41.2,311 33.8,311 30,304.5 33.8,298 41.2,298 45,304.5 			"/>
			<polygon points="42.5,269.8 32.5,269.8 27.5,261.2 32.5,252.5 42.5,252.5 47.5,261.2 			"/>
			<polygon points="43.8,228.7 31.2,228.7 25,217.9 31.2,207 43.8,207 50,217.9 			"/>
			<polygon points="45,186.2 30,186.2 22.5,173.2 30,160.2 45,160.2 52.5,173.2 			"/>
			<polygon points="46.2,145.1 28.8,145.1 20,129.9 28.8,114.7 46.2,114.7 55,129.9 			"/>
			<polygon points="47.5,103.9 27.5,103.9 17.5,86.6 27.5,69.3 47.5,69.3 57.5,86.6 			"/>
			<polygon points="48.8,62.8 26.2,62.8 15,43.3 26.2,23.8 48.8,23.8 60,43.3 			"/>
			<polygon points="50,21.7 25,21.7 12.5,0 25,-21.7 50,-21.7 62.5,0 			"/>
		</g>
	</g>
</g>
</svg>
